<svg width="172" height="39" viewBox="0 0 172 39" fill="none" xmlns="http://www.w3.org/2000/svg">
<path d="M95.4817 32.952C104.012 32.952 111.269 27.7502 111.269 18.976C111.269 10.2018 104.012 5 95.4817 5C86.8877 5 79.6306 10.2018 79.6306 18.9133C79.6306 27.7502 86.8877 32.952 95.4817 32.952ZM95.4817 31.9493C86.8241 31.9493 83.8321 26.3714 83.8321 19.2894C83.8321 11.5806 86.7604 6.00276 95.4817 6.00276C104.139 6.00276 107.068 11.518 107.068 19.2894C107.068 26.3714 104.139 31.9493 95.4817 31.9493ZM158.313 32.952C163.915 32.952 172 30.6958 172 24.2405C172 20.1668 168.944 18.0986 163.724 17.4092C162.515 17.2212 160.287 16.9078 158.568 16.6571C155.767 16.2811 150.929 15.341 150.929 11.4553C150.929 7.31889 154.621 6.00276 158.632 6.00276C162.769 6.00276 169.263 7.31889 169.517 12.0193H169.772L171.236 7.56958C168.308 5.87742 164.297 5 159.841 5C152.52 5 147.491 7.88295 147.491 13.1475C147.491 17.4092 152.266 19.1014 155.449 19.6027C157.295 19.8534 159.586 20.2295 160.605 20.3548C165.952 20.9815 168.626 22.2977 168.626 25.87C168.626 30.3824 163.533 31.9493 158.759 31.9493C153.539 31.9493 146.918 29.8811 147.3 24.6166L147.046 24.5539L145.39 29.8184C145.39 29.8811 145.518 29.9437 145.772 30.0691C148.764 31.8239 153.539 32.952 158.313 32.952ZM45 32.2626H52.8937V32.0746C50.602 31.5106 50.7293 28.3143 50.7293 24.9926V19.164H70.1454V24.9926C70.1454 28.3769 70.2727 31.5732 67.981 32.0746V32.2626H75.8747V32.0746C73.7103 31.5106 73.5193 28.0636 73.5193 24.9926V12.9594C73.5193 9.88847 73.7103 6.3788 75.8747 5.87742V5.6894H68.0446V5.87742C70.3363 6.44147 70.209 9.63778 70.209 12.9594V18.0359H50.7293V12.9594C50.7293 9.57511 50.602 6.3788 52.8937 5.81475V5.6894H45V5.87742C47.1644 6.44147 47.3554 9.88847 47.3554 12.9594V24.9926C47.3554 28.0636 47.1644 31.5732 45 32.0746V32.2626ZM112.16 5.87742C113.497 6.31613 114.579 8.19631 116.044 10.8286C120.181 18.2239 124.447 25.6193 128.584 33.0147C132.85 25.6193 137.115 18.2239 141.38 10.8286C142.844 8.25898 143.863 6.3788 145.263 5.87742V5.6894H138.579V5.87742C140.743 6.56682 141.253 9.07373 139.852 11.3926C136.16 17.5345 132.468 23.7391 128.775 29.9437L130.303 28.6903C126.675 22.4857 122.982 16.2811 119.354 10.0138C118.526 8.447 118.081 6.31613 120.181 5.81475V5.6894H112.16V5.87742Z" fill="black"/>
<path d="M11.8787 15.3211C11.0002 14.4426 9.91078 13.7046 8.75111 13.3181C8.18884 13.1423 7.59143 13.0369 7.02917 13.1072C6.50204 13.1775 6.0452 13.4586 5.83435 13.8803C5.37751 14.7237 6.15062 15.8834 6.95888 16.8322C7.80228 17.781 8.82139 18.5893 9.91078 19.257C10.4379 19.6084 11.0002 19.8895 11.5976 20.1355C11.8787 20.241 12.1599 20.3464 12.441 20.4167C12.7221 20.487 12.9681 20.487 13.2844 20.4518C13.8467 20.4167 14.3386 20.2058 14.6198 19.8193C14.9009 19.4678 14.936 18.9056 14.7603 18.4839C14.5846 18.0622 14.1278 17.781 13.6007 17.6756C13.0735 17.5702 12.4058 17.6053 11.7733 17.7108C11.1407 17.781 10.5433 17.9568 9.94593 18.1676C9.34852 18.3785 8.75111 18.6596 8.1537 18.9407C7.90771 19.0461 7.59143 18.9407 7.48601 18.6947C7.38058 18.4487 7.48601 18.1676 7.732 18.027C8.32941 17.7459 8.92682 17.4296 9.59451 17.1836C10.2271 16.9376 10.9299 16.7268 11.6327 16.6214C11.9841 16.5862 12.3356 16.5511 12.687 16.5159C13.0384 16.5159 13.425 16.5159 13.8115 16.5862C14.1981 16.6565 14.5846 16.7971 14.936 17.0079C15.2875 17.2539 15.6037 17.5702 15.7794 17.9568C16.166 18.765 16.0957 19.7138 15.5686 20.4518C15.3226 20.8032 14.936 21.0844 14.5846 21.2601C14.1981 21.4358 13.8115 21.5061 13.425 21.5412C13.0735 21.5763 12.6167 21.5763 12.2653 21.4709C11.8787 21.4006 11.5273 21.2952 11.211 21.1546C10.5433 20.9087 9.91079 20.5572 9.34852 20.2058C8.18884 19.4678 7.09945 18.5893 6.15062 17.5351C5.69378 17.0079 5.23694 16.4457 4.92066 15.7428C4.7801 15.3914 4.63953 15.0049 4.60439 14.5832C4.56925 14.1615 4.67467 13.7398 4.85038 13.3181C5.06123 12.9315 5.37751 12.5801 5.72892 12.3692C6.08034 12.1584 6.50204 12.0178 6.8886 11.9475C7.69686 11.8421 8.43483 11.9827 9.10253 12.2287C10.4731 12.7206 11.6327 13.564 12.5816 14.5832C12.7573 14.794 12.7573 15.1103 12.5816 15.286C12.3707 15.532 12.0896 15.532 11.8787 15.3211Z" fill="black"/>
<path d="M4.1455 22.5268C4.95376 23.581 5.97287 24.4596 7.13254 24.9515C7.69481 25.1975 8.32736 25.3732 8.92477 25.3381C9.52218 25.3381 10.0493 25.1272 10.2953 24.7407C10.4359 24.565 10.5061 24.319 10.5413 24.0379C10.5764 23.7567 10.5061 23.5107 10.4359 23.2296C10.2602 22.7025 9.87359 22.1753 9.45189 21.6834C8.60849 20.6994 7.48396 19.8911 6.42971 19.0829C5.90258 18.6963 5.34032 18.3449 4.74291 18.0638C4.18064 17.7826 3.54809 17.5718 3.02096 17.5718C2.42355 17.5718 1.89643 17.7475 1.54501 18.0989C1.1936 18.4503 1.05303 18.9775 1.22874 19.4343C1.40445 19.8911 1.82615 20.2426 2.35327 20.4183C2.63441 20.4885 2.8804 20.5237 3.23181 20.5237C3.54809 20.5237 3.86436 20.4885 4.21578 20.4534C5.51602 20.3128 6.74598 19.7857 7.97594 19.2234C8.22193 19.118 8.53821 19.2234 8.64363 19.4694C8.74906 19.7154 8.64363 19.9966 8.39764 20.1371C7.76509 20.4183 7.13254 20.7345 6.46485 21.0157C5.79716 21.2617 5.09432 21.4725 4.35635 21.5779C4.00493 21.6482 3.61837 21.6482 3.26696 21.6834C2.91554 21.6834 2.4587 21.6834 2.07214 21.5428C1.26388 21.3319 0.490762 20.7345 0.209628 19.8911C-0.212072 18.9775 0.03392 17.9583 0.66647 17.3258C1.29902 16.6581 2.17756 16.4473 2.95068 16.4121C3.79408 16.4121 4.53206 16.6932 5.19975 16.9744C5.86744 17.2907 6.49999 17.6772 7.06226 18.0989C7.34339 18.3098 7.65967 18.5558 7.90566 18.7666C8.18679 18.9775 8.46793 19.1883 8.71392 19.4343C9.24104 19.8911 9.76817 20.3831 10.2602 20.9454C10.7521 21.5077 11.1738 22.1402 11.455 22.9133C11.701 23.7216 11.701 24.6353 11.1738 25.4084C10.8927 25.7949 10.5061 26.0761 10.1196 26.2166C9.69788 26.3923 9.31133 26.4275 8.88963 26.4275C8.08137 26.4275 7.34339 26.2166 6.64056 25.9355C5.27003 25.303 4.18064 24.2838 3.3021 23.1242C3.12639 22.9133 3.19667 22.597 3.40752 22.4213C3.65351 22.2456 3.96979 22.2808 4.1455 22.5268Z" fill="black"/>
<path d="M24.3885 14.6554C25.3725 13.6363 26.5322 12.7929 27.8675 12.3009C28.5352 12.0549 29.3084 11.9144 30.0815 12.0198C30.468 12.0901 30.8546 12.1955 31.2412 12.4415C31.5926 12.6523 31.9088 13.0038 32.1197 13.3903C32.3305 13.7769 32.4008 14.2337 32.3657 14.6554C32.3305 15.0771 32.2251 15.4637 32.0494 15.8151C31.7331 16.5179 31.3114 17.0802 30.8195 17.6073C29.8706 18.6616 28.8164 19.5401 27.6216 20.2781C27.0241 20.6646 26.4267 20.9809 25.759 21.2269C25.4428 21.3675 25.0914 21.4729 24.7048 21.5432C24.3534 21.6135 23.8965 21.6486 23.5451 21.6135C23.1586 21.5783 22.772 21.508 22.3854 21.3323C21.9989 21.1566 21.6475 20.8755 21.4015 20.5241C20.8744 19.7861 20.8041 18.8373 21.1906 18.029C21.3663 17.6425 21.6826 17.291 22.034 17.0802C22.3854 16.8342 22.772 16.7288 23.1586 16.6585C23.5451 16.5882 23.9317 16.5882 24.2831 16.5882C24.6345 16.5882 24.9859 16.6234 25.3373 16.6936C26.0402 16.7991 26.743 17.0099 27.3756 17.2559C28.0433 17.5019 28.6407 17.8182 29.2381 18.0993C29.4841 18.2047 29.5895 18.521 29.4841 18.767C29.3786 19.013 29.0975 19.1184 28.8164 19.013C28.1838 18.7319 27.5864 18.4507 27.0241 18.2399C26.4267 18.029 25.8293 17.8533 25.1968 17.783C24.5994 17.7127 23.8965 17.6776 23.3694 17.7479C22.8423 17.8533 22.3854 18.1344 22.2097 18.5561C21.9989 18.9778 22.0692 19.505 22.3503 19.8915C22.6314 20.2429 23.1234 20.4889 23.6857 20.5241C23.9668 20.5592 24.2128 20.5241 24.5291 20.4889C24.8102 20.4187 25.0914 20.3484 25.3725 20.2078C25.9348 19.9618 26.497 19.6807 27.0593 19.3293C28.1487 18.6616 29.1678 17.8182 30.0112 16.9045C30.8195 15.9908 31.5926 14.796 31.1357 13.9526C30.9249 13.5309 30.468 13.2497 29.9409 13.1795C29.4138 13.1092 28.8164 13.2146 28.219 13.3903C27.0593 13.7769 25.9699 14.5148 25.0914 15.3934C24.8805 15.6042 24.5642 15.6042 24.3885 15.3934C24.2128 15.1474 24.2128 14.8311 24.3885 14.6554Z" fill="black"/>
<path d="M33.667 23.1242C32.8236 24.2838 31.6991 25.303 30.3286 25.9355C29.6609 26.2518 28.8877 26.4626 28.0795 26.4275C27.6929 26.4275 27.2712 26.3572 26.8495 26.2166C26.4278 26.0761 26.0764 25.7598 25.7953 25.4084C25.2682 24.6353 25.233 23.7216 25.5141 22.9133C25.7953 22.1402 26.217 21.5077 26.709 20.9454C27.2009 20.3831 27.7281 19.8911 28.2552 19.4343C28.5363 19.1883 28.8175 18.9775 29.0635 18.7666C29.3095 18.5558 29.6257 18.3098 29.9069 18.0989C30.5043 17.6772 31.1017 17.2907 31.7694 16.9744C32.4371 16.6581 33.175 16.4121 34.0184 16.4121C34.7916 16.4121 35.7052 16.6581 36.3026 17.3258C36.9352 17.9583 37.1812 18.9775 36.8649 19.8209C36.5486 20.6643 35.7755 21.2617 35.0024 21.4725C34.6158 21.5779 34.1941 21.6131 33.8076 21.6131C33.4562 21.6131 33.0696 21.5779 32.7182 21.5077C31.9802 21.4022 31.2774 21.1914 30.6097 20.9454C29.942 20.6994 29.3094 20.3831 28.6769 20.0668C28.4309 19.9614 28.3255 19.6451 28.4309 19.3992C28.5363 19.1532 28.8526 19.0477 29.0986 19.1532C30.3637 19.7506 31.5937 20.2426 32.8588 20.3831C33.175 20.4183 33.4913 20.4534 33.8427 20.4534C34.159 20.4534 34.4401 20.4534 34.7213 20.348C35.2484 20.2074 35.6701 19.8209 35.8458 19.364C36.0215 18.9072 35.8809 18.38 35.5295 18.0286C35.1781 17.6772 34.651 17.5015 34.0536 17.5015C33.4913 17.5015 32.8939 17.7124 32.3316 17.9935C31.7342 18.2746 31.172 18.626 30.6448 19.0126C29.5554 19.8209 28.466 20.6643 27.6226 21.6131C27.2009 22.1051 26.8495 22.6322 26.6387 23.1593C26.5684 23.4404 26.4981 23.6864 26.5333 23.9676C26.5684 24.2487 26.6387 24.4596 26.7792 24.6704C27.0252 25.057 27.5524 25.2327 28.1498 25.2678C28.7472 25.2678 29.3446 25.1272 29.942 24.8813C31.1017 24.3893 32.1208 23.4756 32.929 22.4565C33.1048 22.2456 33.421 22.2105 33.6319 22.3511C33.7724 22.597 33.8076 22.8782 33.667 23.1242Z" fill="black"/>
<path d="M19.397 29.3092C19.9944 30.5743 20.5918 31.8746 20.8378 33.3154C20.9081 33.6668 20.9432 34.0533 20.9432 34.4048C20.9432 34.5805 20.9432 34.7562 20.9432 34.9319C20.9432 35.1076 20.9432 35.3184 20.9081 35.5293C20.8026 36.3024 20.4864 37.1809 19.7133 37.6729C19.3618 37.9189 18.8699 38.0946 18.413 38.0595C17.9562 38.0595 17.5345 37.9189 17.1479 37.6729C16.7614 37.4269 16.4802 37.0755 16.2694 36.7241C16.0585 36.3375 15.9531 35.951 15.918 35.5293C15.8828 35.3184 15.8828 35.1427 15.8828 34.9319C15.8828 34.721 15.918 34.5102 15.9531 34.3345C16.0234 33.9479 16.1288 33.5965 16.2342 33.2451C16.4802 32.5422 16.7614 31.9097 17.1128 31.2771C17.7805 30.012 18.6239 28.8524 19.6078 27.7981C20.135 27.271 20.6621 26.779 21.4001 26.4276C21.7515 26.2519 22.1732 26.1113 22.63 26.0762C23.0869 26.0762 23.5086 26.1816 23.8951 26.3924C24.6682 26.8141 25.1602 27.5521 25.4062 28.3252C25.5116 28.7118 25.5468 29.1335 25.5116 29.5201C25.4765 29.9066 25.4062 30.2932 25.3008 30.6446C24.8088 32.0854 23.9303 33.2802 22.8409 34.2642C22.63 34.4399 22.3137 34.4399 22.138 34.229C21.9623 34.0182 21.9623 33.7019 22.1732 33.5262C23.122 32.6477 23.8951 31.5231 24.2465 30.3283C24.4222 29.7309 24.4925 29.1335 24.3168 28.6064C24.1763 28.0792 23.8248 27.5873 23.368 27.3764C23.1571 27.271 22.9111 27.2007 22.6652 27.2007C22.4543 27.2007 22.1732 27.3061 21.9272 27.4116C21.4001 27.6927 20.9081 28.1144 20.4512 28.5712C19.5375 29.5201 18.7996 30.6446 18.167 31.8043C17.8507 32.4017 17.5696 32.9991 17.3588 33.5965C17.2533 33.9128 17.1479 34.1939 17.1128 34.5102C17.0776 34.6507 17.0776 34.7913 17.0776 34.9319C17.0776 35.0724 17.0776 35.213 17.1128 35.3536C17.1831 35.9158 17.429 36.443 17.8507 36.689C18.0616 36.8295 18.2724 36.8998 18.5184 36.8998C18.7293 36.8998 18.9753 36.8295 19.151 36.689C19.5375 36.4078 19.8187 35.8807 19.889 35.3184C19.9241 35.1779 19.9241 35.0373 19.9241 34.8616C19.9241 34.6859 19.9241 34.5453 19.9241 34.3696C19.9241 34.0533 19.889 33.7371 19.8187 33.3856C19.643 32.1205 19.0807 30.8554 18.5536 29.6255C18.4482 29.3795 18.5536 29.0632 18.7996 28.9578C19.0104 28.9578 19.2916 29.0632 19.397 29.3092Z" fill="black"/>
<path d="M14.3052 12.9316C13.2509 11.9476 12.3021 10.7528 11.8804 9.31202C11.6695 8.57404 11.5993 7.80093 11.7047 7.02781C11.775 6.64125 11.8804 6.25469 12.0561 5.86813C12.267 5.48158 12.5481 5.13016 12.9346 4.88417C13.3212 4.63818 13.778 4.53275 14.1997 4.49761C14.6566 4.46247 15.1134 4.60303 15.4648 4.77874C16.2028 5.13016 16.7651 5.62214 17.2571 6.14927C18.2762 7.20352 19.0844 8.36319 19.7873 9.6283C20.1387 10.2608 20.4198 10.9285 20.6658 11.5962C20.7712 11.9476 20.8767 12.2991 20.9469 12.6856C21.0172 13.0722 21.0172 13.4939 20.9821 13.8804C20.9118 14.6536 20.5252 15.5321 19.7873 16.0592C19.4007 16.3052 18.979 16.4809 18.487 16.4809C18.0302 16.4809 17.5733 16.3404 17.1868 16.0944C16.4137 15.6024 16.0623 14.7238 15.9568 13.9507C15.9217 13.7399 15.9217 13.5642 15.9217 13.3533C15.9217 13.1776 15.9217 13.0019 15.9217 12.791C15.9568 12.4396 15.992 12.0531 16.0623 11.7017C16.3434 10.2608 16.9057 8.9606 17.5031 7.6955C17.6085 7.44951 17.9248 7.34409 18.1708 7.44951C18.4167 7.55494 18.5222 7.83607 18.4167 8.1172C17.8896 9.3823 17.3625 10.6474 17.1516 11.9125C17.1165 12.2288 17.0814 12.5451 17.0462 12.8965C17.0462 13.0722 17.0462 13.2127 17.0462 13.3885C17.0462 13.529 17.0462 13.7047 17.0814 13.8453C17.1516 14.4076 17.3976 14.9347 17.8193 15.1807C18.241 15.4618 18.733 15.4267 19.1196 15.1455C19.5061 14.8644 19.7521 14.3373 19.8224 13.775C19.8576 13.4587 19.8576 13.2127 19.7873 12.8965C19.717 12.6153 19.6467 12.2991 19.5413 11.9828C19.3304 11.3854 19.0493 10.788 18.733 10.1906C18.1005 9.03089 17.3274 7.90635 16.4137 6.95753C15.9568 6.50068 15.4648 6.07898 14.9377 5.83299C14.6917 5.69243 14.4457 5.65728 14.1997 5.65728C13.9538 5.65728 13.7078 5.72757 13.4969 5.86813C13.1104 6.11413 12.8292 6.64125 12.7589 7.23866C12.6887 7.83607 12.7238 8.46862 12.8995 9.06603C13.2509 10.2608 14.024 11.3502 14.9729 12.2639C15.1837 12.4396 15.1837 12.7559 14.9729 12.9668C14.7972 13.1073 14.4809 13.1425 14.3052 12.9316Z" fill="black"/>
<path d="M17.5345 30.2567L17.0777 29.4133V29.3782C16.5505 28.1482 16.1288 26.8129 16.0234 25.4072C15.9883 24.7395 15.9531 23.9312 16.3045 23.2284C16.6208 22.4904 17.2885 21.8227 18.2022 21.6822C18.659 21.6119 19.0807 21.7173 19.5024 21.893C19.889 22.0687 20.2053 22.385 20.4513 22.7013C20.9432 23.4041 21.0838 24.1772 21.0487 24.9503C20.9784 25.7235 20.7675 26.3912 20.5215 27.0237C20.2404 27.6563 19.9593 28.2888 19.5727 28.8511C18.8699 30.0108 18.0265 31.1001 16.9722 32.0138C16.4451 32.4707 15.8477 32.8924 15.1097 33.1384C14.934 33.2086 14.7232 33.2438 14.5123 33.2789L14.196 33.3141C14.0906 33.3141 13.9852 33.3141 13.8798 33.3141C13.4932 33.2789 13.0715 33.1384 12.7201 32.9275C12.3687 32.7167 12.0524 32.3652 11.8767 31.9787C11.6658 31.5921 11.5956 31.2056 11.5604 30.819C11.4901 30.0459 11.701 29.3079 12.0173 28.6402C12.6147 27.34 13.5635 26.2857 14.6177 25.4072C14.8286 25.2315 15.1449 25.2666 15.3206 25.4775C15.4963 25.6883 15.4611 26.0046 15.2503 26.1803C14.3015 26.9886 13.4932 27.9725 13.0012 29.0619C12.7552 29.6242 12.6147 30.1865 12.6498 30.7136C12.685 31.2407 12.9309 31.6976 13.3175 31.9435C13.5284 32.049 13.7392 32.1544 13.9852 32.1544H14.1609H14.3366C14.442 32.1193 14.5826 32.1193 14.7232 32.049C15.2152 31.8733 15.7423 31.5218 16.1991 31.1353C17.1128 30.327 17.8859 29.3079 18.5536 28.2185C18.8699 27.6914 19.1862 27.1291 19.4322 26.5317C19.6781 25.9695 19.8539 25.372 19.889 24.8098C19.9241 24.2475 19.8187 23.6852 19.5376 23.2987C19.2564 22.9121 18.7996 22.6661 18.3779 22.7364C17.9562 22.7716 17.5696 23.123 17.3588 23.615C17.1479 24.1069 17.1479 24.6692 17.1831 25.3018C17.1831 26.5669 17.5345 27.7617 17.9913 28.9565V28.9214L18.413 29.7999C18.5185 30.0459 18.413 30.3622 18.1671 30.4676C17.9211 30.573 17.6399 30.4676 17.5345 30.2567Z" fill="black"/>
<path d="M22.6297 3.51417C23.6839 4.49814 24.6328 5.69295 25.0545 7.13376C25.2653 7.87174 25.3356 8.64486 25.2302 9.41797C25.1599 9.80453 25.0545 10.1911 24.8788 10.5776C24.6679 10.9642 24.3868 11.3156 24.0002 11.5616C23.6137 11.8076 23.1568 11.913 22.7351 11.9482C22.2783 11.9833 21.8214 11.8427 21.47 11.667C20.732 11.3156 20.1698 10.8236 19.6778 10.2965C18.6587 9.24226 17.8504 8.08259 17.1476 6.81749C16.7962 6.18494 16.515 5.51725 16.269 4.84955C16.1636 4.49814 16.0582 4.14672 15.9879 3.76016C15.9176 3.3736 15.9176 2.9519 15.9528 2.56534C16.0231 1.79223 16.4096 0.913684 17.1476 0.386559C17.499 0.175708 17.9558 0 18.4127 0C18.8695 0 19.3264 0.140567 19.7129 0.386559C20.486 0.878542 20.8375 1.75708 20.9429 2.5302C20.978 2.74105 20.978 2.91676 20.978 3.12761C20.978 3.30332 20.978 3.47903 20.978 3.68988C20.9429 4.04129 20.9077 4.42785 20.8375 4.77927C20.5563 6.22008 19.9941 7.52032 19.3967 8.78542C19.2912 9.03141 18.975 9.13684 18.729 9.03141C18.483 8.92599 18.3775 8.64486 18.483 8.36372C19.0101 7.09862 19.5372 5.83352 19.7481 4.56842C19.7832 4.25214 19.8184 3.93587 19.8535 3.58445C19.8535 3.40874 19.8535 3.26818 19.8535 3.09247C19.8535 2.9519 19.8535 2.77619 19.8184 2.63563C19.7481 2.07336 19.5021 1.54623 19.0804 1.30024C18.6938 1.05425 18.1667 1.05425 17.7801 1.37053C17.3936 1.65166 17.1476 2.17878 17.0773 2.74105C17.0422 3.05733 17.0422 3.30332 17.1124 3.61959C17.1827 3.90073 17.253 4.217 17.3584 4.53328C17.5693 5.13069 17.8504 5.7281 18.1667 6.3255C18.7992 7.48518 19.5724 8.60971 20.486 9.55854C20.9429 10.0154 21.4349 10.4371 21.962 10.6831C22.208 10.8236 22.454 10.8588 22.7 10.8588C22.946 10.8588 23.192 10.7885 23.4028 10.6479C23.7894 10.4019 24.0705 9.87481 24.1408 9.27741C24.2111 8.68 24.1759 8.04745 24.0002 7.45004C23.6488 6.25522 22.8757 5.16583 21.9269 4.25214C21.716 4.07644 21.716 3.76016 21.9269 3.54931C22.1026 3.33846 22.4188 3.33846 22.6297 3.51417Z" fill="black"/>
</svg>
